<svg width="13" height="13" viewBox="0 0 13 13" fill="none" xmlns="http://www.w3.org/2000/svg">
<path d="M12.7499 6.93616C12.7489 7.85465 12.7419 8.63531 12.6897 9.2759C12.6292 10.0192 12.5051 10.6404 12.2273 11.1562C12.1047 11.3838 11.9542 11.5875 11.7709 11.7709C11.2506 12.2911 10.5878 12.5268 9.74785 12.6397C8.92721 12.75 7.87545 12.75 6.53336 12.75H6.46664C5.12455 12.75 4.07279 12.75 3.25215 12.6397C2.41219 12.5268 1.74939 12.2911 1.22915 11.7709C0.767941 11.3096 0.529767 10.7356 0.403111 10.0235C0.278692 9.32399 0.255932 8.45367 0.251203 7.37295C0.25 7.09806 0.25 6.80732 0.25 6.50058V6.46664C0.249993 5.12455 0.249987 4.07278 0.360318 3.25215C0.473248 2.41219 0.708911 1.74939 1.22915 1.22915C1.74939 0.708911 2.41219 0.473248 3.25215 0.360318C3.98195 0.2622 4.92092 0.251343 6.06377 0.250147C6.30459 0.249895 6.5 0.445224 6.5 0.686046C6.5 0.926868 6.3045 1.122 6.06368 1.12225C4.90468 1.12348 4.04219 1.13404 3.36836 1.22463C2.6251 1.32456 2.17701 1.51462 1.84581 1.84581C1.51462 2.17701 1.32456 2.6251 1.22463 3.36836C1.12302 4.12416 1.12209 5.11731 1.12209 6.5C1.12209 6.66885 1.12209 6.83215 1.12229 6.99026L1.70435 6.48097C2.23416 6.01739 3.03266 6.04398 3.53045 6.54178L6.02448 9.0358C6.42403 9.43536 7.05299 9.48983 7.51529 9.16493L7.68866 9.04309C8.35391 8.57556 9.25397 8.62973 9.85835 9.17367L11.504 10.6548C11.6696 10.3069 11.768 9.84983 11.8205 9.20507C11.87 8.59755 11.8768 7.85968 11.8778 6.93618C11.878 6.69536 12.0731 6.5 12.314 6.5C12.5548 6.5 12.7501 6.69533 12.7499 6.93616Z" fill="#1F1F1F"/>
<path fill-rule="evenodd" clip-rule="evenodd" d="M9.9375 5.875C8.61168 5.875 7.94876 5.875 7.53688 5.46312C7.125 5.05124 7.125 4.38833 7.125 3.0625C7.125 1.73667 7.125 1.07376 7.53688 0.661881C7.94876 0.25 8.61168 0.25 9.9375 0.25C11.2633 0.25 11.9262 0.25 12.3381 0.661881C12.75 1.07376 12.75 1.73667 12.75 3.0625C12.75 4.38833 12.75 5.05124 12.3381 5.46312C11.9262 5.875 11.2633 5.875 9.9375 5.875ZM10.4062 1.8125C10.4062 1.55362 10.1964 1.34375 9.9375 1.34375C9.67862 1.34375 9.46875 1.55362 9.46875 1.8125V2.59375H8.6875C8.42862 2.59375 8.21875 2.80362 8.21875 3.0625C8.21875 3.32138 8.42862 3.53125 8.6875 3.53125H9.46875V4.3125C9.46875 4.57138 9.67862 4.78125 9.9375 4.78125C10.1964 4.78125 10.4062 4.57138 10.4062 4.3125V3.53125H11.1875C11.4464 3.53125 11.6562 3.32138 11.6562 3.0625C11.6562 2.80362 11.4464 2.59375 11.1875 2.59375H10.4062V1.8125Z" fill="#1F1F1F"/>
</svg>
