<svg width="22" height="23" viewBox="0 0 22 23" fill="none" xmlns="http://www.w3.org/2000/svg">
<path d="M15.5357 3.76577C14.2224 3.00608 12.6977 2.57129 11.0714 2.57129C6.14031 2.57129 2.14286 6.56875 2.14286 11.4999C2.14286 12.9281 2.47823 14.2781 3.07452 15.4753C3.23298 15.7934 3.28572 16.1571 3.19385 16.5004L2.66206 18.4879C2.43121 19.3507 3.22055 20.1401 4.08335 19.9092L6.07088 19.3774C6.41422 19.2856 6.77786 19.3383 7.09601 19.4968C8.29318 20.0931 9.64314 20.4284 11.0714 20.4284C16.0025 20.4284 20 16.431 20 11.4999C20 9.87358 19.5652 8.34885 18.8055 7.03558" stroke="#1C274C" stroke-width="1.33929" stroke-linecap="round"/>
</svg>
