<svg width="36" height="36" viewBox="0 0 36 36" fill="none" xmlns="http://www.w3.org/2000/svg">
<path d="M18 34.5C22.3761 34.5 26.5729 32.7616 29.6673 29.6673C32.7616 26.5729 34.5 22.3761 34.5 18C34.5 13.6239 32.7616 9.42709 29.6673 6.33274C26.5729 3.23839 22.3761 1.5 18 1.5C13.6239 1.5 9.42709 3.23839 6.33274 6.33274C3.23839 9.42709 1.5 13.6239 1.5 18C1.5 22.3761 3.23839 26.5729 6.33274 29.6673C9.42709 32.7616 13.6239 34.5 18 34.5Z" stroke="#6D6D6D" stroke-width="1.5" stroke-linecap="round" stroke-linejoin="round"/>
<path d="M13 12L22.2498 24.333" stroke="#6D6D6D" stroke-width="1.58928" stroke-linecap="round" stroke-linejoin="round"/>
<path d="M22.2498 12L13 24.333" stroke="#6D6D6D" stroke-width="1.58928" stroke-linecap="round" stroke-linejoin="round"/>
</svg>
