<svg width="45" height="45" viewBox="0 0 45 45" fill="none" xmlns="http://www.w3.org/2000/svg">
<path d="M43.5939 22.4999C43.6027 25.8488 42.5163 29.1088 40.5001 31.7829C40.3891 31.9306 40.2501 32.0551 40.0909 32.1491C39.9318 32.2431 39.7558 32.3048 39.5728 32.3308C39.3898 32.3567 39.2035 32.3464 39.0245 32.3003C38.8455 32.2543 38.6774 32.1734 38.5296 32.0624C38.3819 31.9514 38.2575 31.8123 38.1635 31.6532C38.0695 31.4941 38.0077 31.318 37.9818 31.135C37.9558 30.9521 37.9662 30.7658 38.0122 30.5868C38.0583 30.4078 38.1391 30.2396 38.2501 30.0919C39.9004 27.9056 40.7895 25.2391 40.7814 22.4999C40.7814 19.1433 39.448 15.9241 37.0745 13.5506C34.701 11.1771 31.4818 9.84365 28.1251 9.84365C24.7685 9.84365 21.5493 11.1771 19.1758 13.5506C16.8023 15.9241 15.4689 19.1433 15.4689 22.4999C15.4689 22.8729 15.3207 23.2305 15.057 23.4943C14.7933 23.758 14.4356 23.9061 14.0626 23.9061C13.6897 23.9061 13.332 23.758 13.0683 23.4943C12.8046 23.2305 12.6564 22.8729 12.6564 22.4999C12.6557 21.0808 12.8503 19.6683 13.2347 18.3022C13.0431 18.2812 12.8498 18.2812 12.6564 18.2812C10.4186 18.2812 8.27252 19.1701 6.69018 20.7524C5.10784 22.3348 4.21889 24.4809 4.21889 26.7186C4.21889 28.9564 5.10784 31.1025 6.69018 32.6849C8.27252 34.2672 10.4186 35.1561 12.6564 35.1561H16.8751C17.2481 35.1561 17.6058 35.3043 17.8695 35.568C18.1332 35.8318 18.2814 36.1894 18.2814 36.5624C18.2814 36.9354 18.1332 37.293 17.8695 37.5568C17.6058 37.8205 17.2481 37.9686 16.8751 37.9686H12.6564C11.1098 37.969 9.5798 37.6505 8.16186 37.033C6.74393 36.4154 5.46855 35.5122 4.41537 34.3796C3.3622 33.2471 2.55385 31.9095 2.04082 30.4505C1.52779 28.9915 1.32109 27.4424 1.43364 25.9C1.54619 24.3575 1.97556 22.8548 2.69494 21.4857C3.41433 20.1167 4.40827 18.9106 5.61469 17.9429C6.82111 16.9752 8.2141 16.2667 9.70665 15.8615C11.1992 15.4564 12.7593 15.3633 14.2894 15.5882C15.8475 12.4719 18.4121 9.97281 21.5677 8.49582C24.7233 7.01883 28.2851 6.6504 31.6761 7.45022C35.0672 8.25004 38.089 10.1713 40.252 12.9027C42.415 15.6341 43.5925 19.0158 43.5939 22.4999ZM27.7138 21.505C27.5832 21.3742 27.4281 21.2705 27.2574 21.1997C27.0867 21.129 26.9037 21.0925 26.7189 21.0925C26.5341 21.0925 26.3511 21.129 26.1804 21.1997C26.0097 21.2705 25.8546 21.3742 25.724 21.505L20.099 27.13C19.9683 27.2606 19.8647 27.4157 19.794 27.5865C19.7233 27.7572 19.6869 27.9401 19.6869 28.1249C19.6869 28.3097 19.7233 28.4926 19.794 28.6633C19.8647 28.8341 19.9683 28.9892 20.099 29.1198C20.3628 29.3837 20.7207 29.5319 21.0939 29.5319C21.2787 29.5319 21.4616 29.4955 21.6323 29.4248C21.803 29.3541 21.9582 29.2505 22.0888 29.1198L25.3126 25.8942V36.5624C25.3126 36.9354 25.4608 37.293 25.7245 37.5568C25.9882 37.8205 26.3459 37.9686 26.7189 37.9686C27.0919 37.9686 27.4495 37.8205 27.7133 37.5568C27.977 37.293 28.1251 36.9354 28.1251 36.5624V25.8942L31.349 29.1198C31.4796 29.2505 31.6347 29.3541 31.8054 29.4248C31.9762 29.4955 32.1591 29.5319 32.3439 29.5319C32.5287 29.5319 32.7116 29.4955 32.8823 29.4248C33.0531 29.3541 33.2082 29.2505 33.3388 29.1198C33.4695 28.9892 33.5731 28.8341 33.6438 28.6633C33.7145 28.4926 33.7509 28.3097 33.7509 28.1249C33.7509 27.9401 33.7145 27.7572 33.6438 27.5865C33.5731 27.4157 33.4695 27.2606 33.3388 27.13L27.7138 21.505Z" fill="#1070FF"/>
</svg>
