<svg width="30" height="30" viewBox="0 0 30 30" fill="none" xmlns="http://www.w3.org/2000/svg">
<path fill-rule="evenodd" clip-rule="evenodd" d="M20 8.4375C19.1371 8.4375 18.4375 9.13706 18.4375 10C18.4375 10.8629 19.1371 11.5625 20 11.5625C20.8629 11.5625 21.5625 10.8629 21.5625 10C21.5625 9.13706 20.8629 8.4375 20 8.4375ZM16.5625 10C16.5625 8.10152 18.1015 6.5625 20 6.5625C21.8985 6.5625 23.4375 8.10152 23.4375 10C23.4375 11.8985 21.8985 13.4375 20 13.4375C18.1015 13.4375 16.5625 11.8985 16.5625 10Z" fill="#1C274C"/>
<path fill-rule="evenodd" clip-rule="evenodd" d="M14.9283 1.5625H15.0717C17.9572 1.56248 20.2185 1.56247 21.9829 1.79968C23.7888 2.04248 25.2138 2.54916 26.3323 3.66767C27.4508 4.78618 27.9575 6.21121 28.2003 8.01713C28.4375 9.78149 28.4375 12.0428 28.4375 14.9283V15.0717C28.4375 17.9572 28.4375 20.2185 28.2003 21.9829C27.9575 23.7888 27.4508 25.2138 26.3323 26.3323C25.2138 27.4508 23.7888 27.9575 21.9829 28.2003C20.2185 28.4375 17.9572 28.4375 15.0717 28.4375H14.9283C12.0428 28.4375 9.78149 28.4375 8.01713 28.2003C6.21121 27.9575 4.78618 27.4508 3.66767 26.3323C2.54916 25.2138 2.04248 23.7888 1.79968 21.9829C1.56247 20.2185 1.56248 17.9572 1.5625 15.0717V14.9283C1.56248 12.0428 1.56247 9.78149 1.79968 8.01713C2.04248 6.21121 2.54916 4.78618 3.66767 3.66767C4.78618 2.54916 6.21121 2.04248 8.01713 1.79968C9.78149 1.56247 12.0428 1.56248 14.9283 1.5625ZM4.9935 25.0065C4.28143 24.2944 3.87281 23.331 3.65796 21.733C3.46612 20.3061 3.4412 18.4857 3.43798 16.0502L5.30683 14.4149C6.07447 13.7432 7.23143 13.7818 7.95269 14.503L13.3149 19.8652C14.496 21.0464 16.3554 21.2074 17.7221 20.2469L18.0948 19.985C19.1675 19.2311 20.6189 19.3184 21.5934 20.1955L25.6228 23.822C25.6667 23.8615 25.7133 23.896 25.7618 23.9257C25.5598 24.3519 25.3109 24.7021 25.0065 25.0065C24.2944 25.7186 23.331 26.1272 21.733 26.342C20.1081 26.5605 17.9728 26.5625 15 26.5625C12.0272 26.5625 9.89194 26.5605 8.26697 26.342C6.66897 26.1272 5.70557 25.7186 4.9935 25.0065ZM8.26697 3.65796C6.66897 3.87281 5.70557 4.28143 4.9935 4.9935C4.28143 5.70557 3.87281 6.66897 3.65796 8.26697C3.47655 9.61634 3.4444 11.3176 3.43872 13.5581L4.07214 13.0038C5.58267 11.6821 7.85926 11.758 9.27852 13.1772L14.6407 18.5394C15.1776 19.0763 16.0227 19.1495 16.644 18.7129L17.0167 18.4509C18.8046 17.1944 21.2235 17.34 22.8477 18.8019L26.3152 21.9226C26.3245 21.8604 26.3334 21.7972 26.342 21.733C26.5605 20.1081 26.5625 17.9728 26.5625 15C26.5625 12.0272 26.5605 9.89194 26.342 8.26697C26.1272 6.66897 25.7186 5.70557 25.0065 4.9935C24.2944 4.28143 23.331 3.87281 21.733 3.65796C20.1081 3.43949 17.9728 3.4375 15 3.4375C12.0272 3.4375 9.89194 3.43949 8.26697 3.65796Z" fill="#1C274C"/>
</svg>
