<svg width="18" height="18" viewBox="0 0 18 18" fill="none" xmlns="http://www.w3.org/2000/svg">
<g clip-path="url(#clip0_157_1882)">
<path d="M6.75 14.2508C3.525 15.3008 3.525 12.3758 2.25 12.0008M11.25 15.7508V13.1258C11.25 12.3758 11.325 12.0758 10.875 11.6258C12.975 11.4008 15 10.5758 15 7.12582C14.9991 6.22954 14.6494 5.3688 14.025 4.72582C14.3179 3.94729 14.2909 3.08454 13.95 2.32582C13.95 2.32582 13.125 2.10082 11.325 3.30082C9.80043 2.90376 8.19957 2.90376 6.675 3.30082C4.875 2.10082 4.05 2.32582 4.05 2.32582C3.70911 3.08454 3.68215 3.94729 3.975 4.72582C3.35059 5.3688 3.00091 6.22954 3 7.12582C3 10.5758 5.025 11.4008 7.125 11.6258C6.675 12.0758 6.675 12.5258 6.75 13.1258V15.7508" stroke="#545454" stroke-width="1.125" stroke-linecap="round" stroke-linejoin="round"/>
</g>
<defs>
<clipPath id="clip0_157_1882">
<rect width="18" height="18" fill="white"/>
</clipPath>
</defs>
</svg>
