<svg width="13" height="19" viewBox="0 0 13 19" fill="none" xmlns="http://www.w3.org/2000/svg">
<g clip-path="url(#clip0_392_2520)">
<path d="M3.09848 3.42398L11.3037 9.50047L3.09848 15.577C3.05164 15.6042 3.00051 15.6098 2.95158 15.593C2.90265 15.5761 2.85813 15.5376 2.82366 15.4824C2.78819 15.4256 2.76376 15.3551 2.7531 15.2787C2.74244 15.2022 2.74596 15.1227 2.76326 15.0491L4.00547 9.50047L2.76326 3.95184C2.74596 3.87821 2.74244 3.79875 2.7531 3.72228C2.76376 3.64581 2.78819 3.5753 2.82366 3.51857C2.85813 3.4633 2.90265 3.42481 2.95158 3.40797C3.00051 3.39112 3.05164 3.3967 3.09848 3.42398Z" stroke="white" stroke-width="1.31944" stroke-linecap="round" stroke-linejoin="round"/>
<path d="M4.0054 9.5H11.3036" stroke="white" stroke-width="1.31944" stroke-linecap="round" stroke-linejoin="round"/>
</g>
<defs>
<clipPath id="clip0_392_2520">
<rect width="12.0798" height="18.3073" fill="white" transform="translate(0.733765 0.346436)"/>
</clipPath>
</defs>
</svg>
