<svg width="18" height="18" viewBox="0 0 18 18" fill="none" xmlns="http://www.w3.org/2000/svg">
<g clip-path="url(#clip0_387_1857)">
<path d="M8.39058 1.97807C8.65279 1.82977 8.94847 1.75195 9.24909 1.75195C9.55027 1.75223 9.84642 1.8305 10.1089 1.97939C10.3712 2.12813 10.5912 2.3424 10.7475 2.60174C10.7477 2.60204 10.7478 2.60234 10.748 2.60264L17.016 13.1116C17.1682 13.3779 17.2487 13.6796 17.2493 13.987C17.2498 14.2957 17.1697 14.5989 17.0172 14.8665C16.8647 15.1341 16.6451 15.3565 16.3806 15.5118C16.1166 15.6668 15.817 15.7495 15.5116 15.752H2.9795C2.67413 15.7482 2.37491 15.6642 2.11159 15.5081C1.84752 15.3516 1.62872 15.128 1.47729 14.8595C1.32586 14.5909 1.24718 14.287 1.24931 13.9781C1.25143 13.67 1.33384 13.3679 1.48815 13.102L7.75185 2.59936C7.75207 2.599 7.75228 2.59865 7.7525 2.59829C7.90884 2.33972 8.12865 2.1262 8.39058 1.97807L8.14444 1.54285L8.39058 1.97807Z" stroke="#717171"/>
</g>
<defs>
<clipPath id="clip0_387_1857">
<rect width="18" height="18" fill="white"/>
</clipPath>
</defs>
</svg>
