<svg width="21" height="18" viewBox="0 0 21 18" fill="none" xmlns="http://www.w3.org/2000/svg">
<path d="M10.4999 0.24707C10.0616 0.247016 9.63069 0.359959 9.24874 0.574997C8.86679 0.790035 8.54673 1.0999 8.31945 1.4747L1.2232 13.3196C0.997793 13.705 0.877535 14.1428 0.874451 14.5892C0.871366 15.0357 0.985563 15.4751 1.20562 15.8636C1.42568 16.252 1.74388 16.5759 2.12839 16.8028C2.51291 17.0297 2.95026 17.1516 3.3967 17.1564H17.5936C18.0396 17.1533 18.477 17.0332 18.8621 16.8081C19.2472 16.5831 19.5666 16.2609 19.7882 15.8738C20.0099 15.4867 20.1261 15.0483 20.1253 14.6022C20.1245 14.1562 20.0067 13.7181 19.7837 13.3318L12.6822 1.47907C12.4551 1.10339 12.135 0.792626 11.7527 0.576811C11.3704 0.360997 10.9389 0.247425 10.4999 0.24707Z" fill="black"/>
</svg>
