<svg width="15" height="18" viewBox="0 0 15 18" fill="none" xmlns="http://www.w3.org/2000/svg">
<path d="M6.00009 3.1667C6.00009 2.72466 6.17568 2.30073 6.48825 1.98816C6.80082 1.6756 7.22475 1.5 7.66678 1.5C8.10882 1.5 8.53275 1.6756 8.84531 1.98816C9.15788 2.30073 9.33348 2.72466 9.33348 3.1667C10.2905 3.61923 11.1063 4.32365 11.6936 5.20448C12.2808 6.08531 12.6172 7.10933 12.6669 8.16678V10.6668C12.7296 11.1849 12.9131 11.6811 13.2026 12.1153C13.492 12.5495 13.8794 12.9097 14.3336 13.1669H1C1.45412 12.9097 1.84152 12.5495 2.13101 12.1153C2.4205 11.6811 2.60398 11.1849 2.6667 10.6668V8.16678C2.71633 7.10933 3.05279 6.08531 3.64 5.20448C4.22722 4.32365 5.04306 3.61923 6.00009 3.1667Z" stroke="#505050" stroke-width="1.25002" stroke-linecap="round" stroke-linejoin="round"/>
<path d="M5.16577 13.1665V13.9999C5.16577 14.6629 5.42917 15.2988 5.89802 15.7676C6.36687 16.2365 7.00276 16.4999 7.66581 16.4999C8.32887 16.4999 8.96476 16.2365 9.43361 15.7676C9.90246 15.2988 10.1659 14.6629 10.1659 13.9999V13.1665" stroke="#505050" stroke-width="1.25002" stroke-linecap="round" stroke-linejoin="round"/>
</svg>
