<?xml version="1.0" encoding="utf-8" ?>
<svg xmlns="http://www.w3.org/2000/svg" xmlns:xlink="http://www.w3.org/1999/xlink" width="136" height="135">
	<defs>
		<linearGradient id="gradient_0" gradientUnits="userSpaceOnUse" x1="83.87513" y1="120.6457" x2="53.090797" y2="7.7261176">
			<stop offset="0" stop-color="#F9A314"/>
			<stop offset="1" stop-color="#FFC81C"/>
		</linearGradient>
	</defs>
	<path fill="url(#gradient_0)" d="M22.8074 92.3119C21.4877 90.7559 20.5354 88.6956 19.5455 86.9099C13.8466 76.6296 9.57947 63.9884 10.5413 52.1011C11.983 34.2819 19.1279 27.5617 32.0317 16.5906C34.04 14.883 36.2857 13.0825 38.6207 11.8619C44.5114 8.78268 53.9586 7.11989 60.6192 7.66743C81.0906 9.35033 97.8941 20.619 110.891 35.98C121.768 48.835 129.892 67.6503 128.432 84.7086C127.458 96.0939 123.223 103.563 114.932 111.184C113.263 112.99 111.184 114.625 109.346 116.267C101.413 123.352 94.8651 127.251 84.026 127.966C70.0819 128.887 55.9304 123.115 44.7573 115.127C41.3758 112.71 38.2613 109.956 35.1356 107.224C31.3014 104.059 25.264 96.5028 22.8074 92.3119Z"/>
	<path fill="#D27E08" d="M56.9986 22.4366C62.0664 22.3133 73.359 22.8275 77.286 26.0859C65.3247 23.0486 56.9319 20.3004 45.4599 27.125C41.9201 29.2308 40.8703 31.4529 38.2718 33.1666C34.9272 37.5311 35.6082 39.0438 33.7605 43.3888C33.7047 43.2807 33.6505 43.1616 33.6311 43.0407C33.2774 40.8433 35.3575 34.6097 36.6374 32.6707L36.8165 32.8064C37.669 32.5573 38.5315 31.3843 39.1417 30.7362C40.7076 29.0054 42.5198 27.2418 44.5198 26.0251C47.7472 24.0618 53.238 22.7036 56.9986 22.4366Z"/>
	<path fill="#D27E08" d="M22.8074 92.3119C22.8358 92.3222 22.8642 92.3322 22.8925 92.3429C25.7175 93.4093 27.2711 100.988 30.836 99.3969C33.3287 98.2846 38.0143 92.5735 40.1602 90.3444C40.0358 88.5915 37.3197 87.3533 37.0394 85.6697C38.7686 86.848 40.1648 89.2793 41.554 90.8912C43.1024 92.688 44.7801 94.4512 46.4749 96.1101C45.3255 97.1434 44.4665 98.362 43.4422 99.5047C41.9848 101.131 40.4399 102.598 38.7847 104.019C37.9393 104.745 35.4542 105.958 35.157 106.499L35.1356 107.224C31.3014 104.059 25.264 96.5028 22.8074 92.3119Z"/>
	<path fill="#A55C02" d="M53.4083 19.6262C63.0948 16.6081 74.6891 19.9209 83.3506 24.4651C90.9767 28.4662 98.2784 34.4787 103.476 41.3635C100.799 39.178 98.6348 36.4111 96.0252 34.1289C95.3786 34.6611 94.8887 35.0488 94.6035 35.865C94.5944 36.5224 94.7897 36.995 95.2413 37.47C96.6777 38.9812 98.4824 40.0384 99.8349 41.6772C98.0242 41.0805 95.991 38.4222 94.5498 37.164C90.6411 33.7518 82.1831 27.2714 77.286 26.0859C73.359 22.8275 62.0664 22.3133 56.9986 22.4366C53.238 22.7036 47.7472 24.0618 44.5198 26.0251C42.5198 27.2418 40.7076 29.0054 39.1417 30.7362C38.5315 31.3843 37.669 32.5573 36.8165 32.8064L36.6374 32.6707C36.944 32.0272 37.2697 31.3922 37.6475 30.7873C41.101 25.2571 47.0599 21.0837 53.4083 19.6262Z"/>
	<defs>
		<linearGradient id="gradient_1" gradientUnits="userSpaceOnUse" x1="78.409744" y1="129.87294" x2="67.524498" y2="90.542755">
			<stop offset="0" stop-color="#562C00"/>
			<stop offset="1" stop-color="#A96B09"/>
		</linearGradient>
	</defs>
	<path fill="url(#gradient_1)" d="M46.4749 96.1101C58.8748 108.248 75.74 117.458 93.4379 117.274C98.5112 117.221 103.79 116.317 108.396 114.114C110.524 113.096 112.641 111.783 114.932 111.184C113.263 112.99 111.184 114.625 109.346 116.267C101.413 123.352 94.8651 127.251 84.026 127.966C70.0819 128.887 55.9304 123.115 44.7573 115.127C41.3758 112.71 38.2613 109.956 35.1356 107.224L35.157 106.499C35.4542 105.958 37.9393 104.745 38.7847 104.019C40.4399 102.598 41.9848 101.131 43.4422 99.5047C44.4665 98.362 45.3255 97.1434 46.4749 96.1101Z"/>
	<path fill="#D27E08" d="M35.5401 46.9628C35.9227 41.4162 38.707 35.7682 42.9099 32.109C48.2857 27.4286 55.6976 25.7518 62.6542 26.242C76.1179 27.1909 88.3788 35.4584 97.0152 45.4433C102.106 51.3292 107.32 59.6331 108.682 67.4211C109.198 69.7042 109.772 72.2022 109.774 74.5493C109.841 76.451 109.934 78.2806 109.808 80.1876C109.361 86.9562 106.613 93.7892 101.424 98.3104C96.0017 103.035 89.0464 104.315 82.0501 103.83C68.9926 102.924 56.7372 94.5951 48.3604 84.9462C42.0249 77.6485 35.7646 66.4104 35.0299 56.6037C34.7986 53.516 35.3206 50.0679 35.5401 46.9628Z"/>
	<defs>
		<linearGradient id="gradient_2" gradientUnits="userSpaceOnUse" x1="99.209068" y1="98.043465" x2="45.598423" y2="31.718369">
			<stop offset="0" stop-color="#FFAF17"/>
			<stop offset="1" stop-color="#FFC61C"/>
		</linearGradient>
	</defs>
	<path fill="url(#gradient_2)" d="M36.3671 47.1966C38.1818 40.1431 40.3885 34.4552 46.9643 30.557C53.6713 26.581 62.3275 26.5128 69.7049 28.4095C82.995 31.8263 94.834 41.8067 101.733 53.5075C104.368 57.9768 106.86 63.2853 107.883 68.4159C108.33 70.7166 108.684 73.0077 108.975 75.3332C108.965 77.8511 108.966 80.3818 108.704 82.8885C108.217 87.5384 104.818 94.3833 101.196 97.3157C95.0611 102.281 88.1761 103.56 80.4415 102.737C67.7121 101.383 55.7107 92.843 47.8661 83.0928C39.5241 72.7242 34.9205 60.5685 36.3671 47.1966Z"/>
	<path fill="#A55C02" d="M58.4577 37.7962Q59.9909 37.6362 61.532 37.6711Q63.0731 37.7059 64.5975 37.9351Q66.1219 38.1643 67.6051 38.5842Q69.0883 39.0041 70.5067 39.6079C77.1737 42.3775 81.2644 47.5428 83.9747 54.0752C81.1389 53.9065 78.2706 53.478 75.4453 53.1647C74.8534 51.6922 74.2704 50.2402 73.3473 48.9359C71.547 46.3923 69.1877 45.0891 66.1481 44.581C64.4354 44.2947 62.4828 44.1209 60.9965 45.2039C59.828 46.0554 59.2913 47.4563 59.0947 48.844C58.3413 54.1635 61.4508 64.2233 64.7093 68.5508C67.207 71.868 69.7536 72.6944 73.7103 73.2497C75.2776 73.1131 76.8626 72.9648 77.9317 71.6693C79.0858 70.2708 78.9827 68.2339 78.8315 66.5387C81.6636 67.0555 84.5582 67.3188 87.407 67.7502C87.6332 70.23 87.663 72.8161 86.54 75.1034C85.5826 77.0533 83.9231 78.4388 81.8679 79.1159C76.9693 80.7298 70.9191 79.6461 66.4114 77.3538C59.3937 73.7851 54.8921 67.4319 52.5022 60.0586C50.8752 55.0389 49.0667 47.911 51.6424 42.9333C53.1489 40.022 55.4605 38.742 58.4577 37.7962Z"/>
</svg>
