<svg width="26" height="26" viewBox="0 0 26 26" fill="none" xmlns="http://www.w3.org/2000/svg">
<g clip-path="url(#clip0_157_1627)">
<path d="M12.9998 2.16699L13.3508 2.16808L13.6953 2.17241L14.3627 2.19083L14.6866 2.20491L15.3138 2.24174L15.9129 2.29158C21.0967 2.79424 23.2059 4.90349 23.7086 10.0872L23.7584 10.6863L23.7953 11.3136C23.8007 11.4197 23.8061 11.5281 23.8093 11.6375L23.8278 12.3048L23.8332 13.0003L23.8278 13.6958L23.8093 14.3632L23.7953 14.6871L23.7584 15.3143L23.7086 15.9134C23.2059 21.0972 21.0967 23.2064 15.9129 23.7091L15.3138 23.7589L14.6866 23.7957C14.5804 23.8012 14.4721 23.8066 14.3627 23.8098L13.6953 23.8282L12.9998 23.8337L12.3043 23.8282L11.637 23.8098L11.3131 23.7957L10.6858 23.7589L10.0868 23.7091C4.903 23.2064 2.79375 21.0972 2.29109 15.9134L2.24125 15.3143L2.20442 14.6871C2.19915 14.5791 2.19446 14.4712 2.19034 14.3632L2.17192 13.6958C2.16867 13.4683 2.1665 13.2365 2.1665 13.0003L2.16759 12.6493L2.17192 12.3048L2.19034 11.6375L2.20442 11.3136L2.24125 10.6863L2.29109 10.0872C2.79375 4.90349 4.903 2.79424 10.0868 2.29158L10.6858 2.24174L11.3131 2.20491C11.4193 2.19949 11.5276 2.19408 11.637 2.19083L12.3043 2.17241C12.5318 2.16916 12.7637 2.16699 12.9998 2.16699ZM16.2498 11.917H9.74984L9.62309 11.9246C9.3489 11.9572 9.09751 12.0933 8.92029 12.305C8.74307 12.5167 8.65338 12.7882 8.66957 13.0638C8.68575 13.3395 8.80657 13.5985 9.00735 13.7881C9.20814 13.9776 9.47372 14.0834 9.74984 14.0837H16.2498L16.3766 14.0761C16.6508 14.0435 16.9022 13.9074 17.0794 13.6956C17.2566 13.4839 17.3463 13.2125 17.3301 12.9368C17.3139 12.6612 17.1931 12.4021 16.9923 12.2126C16.7915 12.023 16.526 11.9173 16.2498 11.917Z" fill="#FF4343"/>
</g>
<defs>
<clipPath id="clip0_157_1627">
<rect width="26" height="26" fill="white"/>
</clipPath>
</defs>
</svg>
