<svg width="20" height="19" viewBox="0 0 20 19" fill="none" xmlns="http://www.w3.org/2000/svg">
<g clip-path="url(#clip0_201_2929)">
<path d="M9.77368 6.4165V9.49984L11.3153 11.0415" stroke="white" stroke-width="1.54167" stroke-linecap="round" stroke-linejoin="round"/>
<path d="M2.87451 8.7291C3.04725 7.03331 3.83826 5.46047 5.09662 4.31065C6.35498 3.16084 7.99261 2.51455 9.69706 2.49508C11.4015 2.47561 13.0535 3.08433 14.3378 4.2051C15.6221 5.32587 16.4488 6.88024 16.6602 8.57164C16.8717 10.263 16.453 11.9731 15.4841 13.3755C14.5152 14.7779 13.0639 15.7745 11.4071 16.1752C9.75028 16.5759 8.00395 16.3526 6.50128 15.5479C4.99861 14.7433 3.84478 13.4135 3.25993 11.8124M2.87451 15.6666V11.8124H6.72868" stroke="white" stroke-width="1.54167" stroke-linecap="round" stroke-linejoin="round"/>
</g>
<defs>
<clipPath id="clip0_201_2929">
<rect width="18.5" height="18.5" fill="white" transform="translate(0.523682 0.25)"/>
</clipPath>
</defs>
</svg>
