<svg width="42" height="42" viewBox="0 0 42 42" fill="none" xmlns="http://www.w3.org/2000/svg">
<rect width="42" height="42" rx="21" fill="#1070FF"/>
<path d="M26.4044 25.3439L28.6497 20.4022C30.6112 16.0852 31.5919 13.9267 30.5353 12.6218C29.4786 11.317 27.1634 11.8275 22.5329 12.8485L17.2323 14.0173C13.4951 14.8414 11.6265 15.2534 11.0207 16.082C10.4444 16.8702 10.3354 17.9071 10.7352 18.7979C11.1555 19.7343 12.8976 20.5258 16.3819 22.1089C16.8137 22.3051 17.3283 22.2515 17.6983 21.9548L23.7439 17.1055C24.084 16.8327 24.5809 16.8873 24.8537 17.2274C25.1265 17.5675 25.072 18.0644 24.7319 18.3372L18.7838 23.1081C18.3761 23.4352 18.2003 23.983 18.3128 24.4935C19.1369 28.2307 19.549 30.0993 20.3775 30.7051C21.1657 31.2814 22.2026 31.3904 23.0934 30.9906C24.0298 30.5703 24.8214 28.8282 26.4044 25.3439Z" fill="white"/>
</svg>
