<svg width="22" height="23" viewBox="0 0 22 23" fill="none" xmlns="http://www.w3.org/2000/svg">
<path d="M15.046 8.68595C15.309 8.42589 15.3113 8.00191 15.0513 7.73895C14.7912 7.47599 14.3672 7.47364 14.1043 7.7337L15.046 8.68595ZM10.0916 13.5857L15.046 8.68595L14.1043 7.7337L9.14985 12.6335L10.0916 13.5857Z" fill="#1C274C"/>
<path d="M17.2104 14.7768C16.1299 18.0184 15.5896 19.6392 14.7973 20.0998C14.0436 20.538 13.1127 20.538 12.359 20.0998C11.5668 19.6392 11.0265 18.0184 9.94596 14.7768C9.77247 14.2563 9.68572 13.996 9.54009 13.7785C9.39896 13.5677 9.21787 13.3866 9.00706 13.2455C8.78953 13.0998 8.52928 13.0131 8.00878 12.8396C4.76715 11.759 3.14633 11.2188 2.68574 10.4265C2.24758 9.6728 2.24758 8.74194 2.68574 7.98824C3.14633 7.19597 4.76715 6.65569 8.00878 5.57515M18.4515 11.0534L18.7429 10.1791C20.0817 6.16273 20.7511 4.15452 19.6911 3.09446C18.631 2.0344 16.6228 2.7038 12.6064 4.04261L11.6632 4.357" stroke="#1C274C" stroke-width="1.33929" stroke-linecap="round"/>
</svg>
