<svg width="28" height="28" viewBox="0 0 28 28" fill="none" xmlns="http://www.w3.org/2000/svg">
<path d="M18.6603 3.85474C20.4532 2.05488 23.0758 2.01708 24.5276 3.47454C25.9822 4.93476 25.943 7.57381 24.1489 9.3749L21.1191 12.4165C20.7537 12.7833 20.7549 13.3769 21.1217 13.7423C21.4885 14.1077 22.0821 14.1065 22.4475 13.7397L25.4773 10.6982C27.8664 8.29976 28.1663 4.4706 25.856 2.15129C23.5429 -0.170775 19.7223 0.131866 17.3319 2.53149L11.2723 8.61456C8.88323 11.013 8.58328 14.8422 10.8936 17.1615C11.259 17.5283 11.8526 17.5294 12.2194 17.164C12.5863 16.7986 12.5874 16.205 12.222 15.8382C10.7674 14.378 10.8066 11.7389 12.6007 9.93781L18.6603 3.85474Z" fill="#1C274C"/>
<path d="M17.106 10.8382C16.7406 10.4714 16.147 10.4702 15.7802 10.8356C15.4134 11.201 15.4122 11.7946 15.7776 12.1615C17.2322 13.6217 17.193 16.2607 15.3989 18.0618L9.33935 24.1449C7.54645 25.9448 4.92385 25.9826 3.47202 24.5251C2.01744 23.0649 2.05662 20.4258 3.85075 18.6247L6.88055 15.5831C7.24596 15.2163 7.24481 14.6227 6.87798 14.2573C6.51115 13.8919 5.91756 13.8931 5.55216 14.2599L2.52235 17.3015C0.133228 19.6999 -0.166721 23.5291 2.14363 25.8484C4.45672 28.1705 8.2774 27.8678 10.6677 25.4682L16.7273 19.3851C19.1164 16.9867 19.4163 13.1575 17.106 10.8382Z" fill="#1C274C"/>
</svg>
