<svg width="18" height="19" viewBox="0 0 18 19" fill="none" xmlns="http://www.w3.org/2000/svg">
<g clip-path="url(#clip0_201_3119)">
<path d="M10.4222 6.65544V5.23324C10.4222 4.85604 10.2724 4.4943 10.0056 4.22759C9.73893 3.96087 9.37719 3.81104 9 3.81104H4.0223C3.64511 3.81104 3.28336 3.96087 3.01665 4.22759C2.74994 4.4943 2.6001 4.85604 2.6001 5.23324V13.7664C2.6001 14.1436 2.74994 14.5054 3.01665 14.7721C3.28336 15.0388 3.64511 15.1886 4.0223 15.1886H9C9.37719 15.1886 9.73893 15.0388 10.0056 14.7721C10.2724 14.5054 10.4222 14.1436 10.4222 13.7664V12.3442" stroke="white" stroke-width="1.4222" stroke-linecap="round" stroke-linejoin="round"/>
<path d="M6.8667 9.5H15.3999L13.2666 7.3667" stroke="white" stroke-width="1.4222" stroke-linecap="round" stroke-linejoin="round"/>
<path d="M13.2666 11.6333L15.3999 9.5" stroke="white" stroke-width="1.4222" stroke-linecap="round" stroke-linejoin="round"/>
</g>
<defs>
<clipPath id="clip0_201_3119">
<rect width="17.0664" height="17.0664" fill="white" transform="translate(0.466797 0.966797)"/>
</clipPath>
</defs>
</svg>
